<svg width="83" height="84" viewBox="0 0 83 84" fill="none" xmlns="http://www.w3.org/2000/svg">
<path d="M0 25.575C0 18.75 2.7 12.3 7.425 7.5C12.15 2.7 18.525 0 25.275 0H83.55V13.05H25.275C21.975 13.05 18.825 14.4 16.5 16.725C14.175 19.05 12.9 22.275 12.825 25.65L12.75 47.55C12.45 50.325 11.325 52.95 9.45 55.05C7.575 57.075 5.025 58.425 2.325 58.95L0 59.325V25.575Z" fill="#E30613"/>
<path d="M0 84.6V71.55H58.2C61.5 71.55 64.65 70.2 66.975 67.875C69.3 65.55 70.575 62.325 70.65 58.95V38.175C70.65 35.175 71.7 32.25 73.65 30C75.6 27.75 78.225 26.175 81.15 25.725L83.475 25.35V58.95C83.475 65.775 80.775 72.225 76.05 77.025C71.325 81.825 64.95 84.525 58.2 84.525H0V84.6Z" fill="#E30613"/>
<path d="M49.35 59.25V42.375L41.775 51.6L34.125 42.375V59.25H24.075V26.1H33.6L41.7 36.75L49.875 26.1H59.4V59.25H49.35Z" fill="#E30613"/>
</svg>
